<mxfile host="app.diagrams.net" modified="2024-02-25T12:49:17.694Z" agent="Mozilla/5.0 (Windows NT 10.0; Win64; x64) AppleWebKit/537.36 (KHTML, like Gecko) Chrome/121.0.0.0 Safari/537.36" etag="8gn1SZGgUWRa20Yg5fep" version="23.1.6" type="github">
  <diagram name="Page-1" id="2YBvvXClWsGukQMizWep">
    <mxGraphModel dx="600" dy="318" grid="1" gridSize="10" guides="1" tooltips="1" connect="1" arrows="1" fold="1" page="1" pageScale="1" pageWidth="850" pageHeight="1100" math="0" shadow="0">
      <root>
        <mxCell id="0" />
        <mxCell id="1" parent="0" />
        <mxCell id="aM9ryv3xv72pqoxQDRHE-1" value="Admin" style="shape=umlLifeline;perimeter=lifelinePerimeter;whiteSpace=wrap;html=1;container=0;dropTarget=0;collapsible=0;recursiveResize=0;outlineConnect=0;portConstraint=eastwest;newEdgeStyle={&quot;edgeStyle&quot;:&quot;elbowEdgeStyle&quot;,&quot;elbow&quot;:&quot;vertical&quot;,&quot;curved&quot;:0,&quot;rounded&quot;:0};" parent="1" vertex="1">
          <mxGeometry x="40" y="40" width="100" height="400" as="geometry" />
        </mxCell>
        <mxCell id="aM9ryv3xv72pqoxQDRHE-2" value="" style="html=1;points=[];perimeter=orthogonalPerimeter;outlineConnect=0;targetShapes=umlLifeline;portConstraint=eastwest;newEdgeStyle={&quot;edgeStyle&quot;:&quot;elbowEdgeStyle&quot;,&quot;elbow&quot;:&quot;vertical&quot;,&quot;curved&quot;:0,&quot;rounded&quot;:0};" parent="aM9ryv3xv72pqoxQDRHE-1" vertex="1">
          <mxGeometry x="45" y="70" width="10" height="190" as="geometry" />
        </mxCell>
        <mxCell id="aM9ryv3xv72pqoxQDRHE-3" value="dispatch" style="html=1;verticalAlign=bottom;startArrow=oval;endArrow=block;startSize=8;edgeStyle=elbowEdgeStyle;elbow=vertical;curved=0;rounded=0;" parent="aM9ryv3xv72pqoxQDRHE-1" target="aM9ryv3xv72pqoxQDRHE-2" edge="1">
          <mxGeometry relative="1" as="geometry">
            <mxPoint x="-15" y="70" as="sourcePoint" />
          </mxGeometry>
        </mxCell>
        <mxCell id="aM9ryv3xv72pqoxQDRHE-5" value="Birthday party system" style="shape=umlLifeline;perimeter=lifelinePerimeter;whiteSpace=wrap;html=1;container=0;dropTarget=0;collapsible=0;recursiveResize=0;outlineConnect=0;portConstraint=eastwest;newEdgeStyle={&quot;edgeStyle&quot;:&quot;elbowEdgeStyle&quot;,&quot;elbow&quot;:&quot;vertical&quot;,&quot;curved&quot;:0,&quot;rounded&quot;:0};" parent="1" vertex="1">
          <mxGeometry x="220" y="40" width="100" height="400" as="geometry" />
        </mxCell>
        <mxCell id="aM9ryv3xv72pqoxQDRHE-6" value="" style="html=1;points=[];perimeter=orthogonalPerimeter;outlineConnect=0;targetShapes=umlLifeline;portConstraint=eastwest;newEdgeStyle={&quot;edgeStyle&quot;:&quot;elbowEdgeStyle&quot;,&quot;elbow&quot;:&quot;vertical&quot;,&quot;curved&quot;:0,&quot;rounded&quot;:0};" parent="aM9ryv3xv72pqoxQDRHE-5" vertex="1">
          <mxGeometry x="45" y="80" width="10" height="170" as="geometry" />
        </mxCell>
        <mxCell id="aM9ryv3xv72pqoxQDRHE-7" value="Admin log-in" style="html=1;verticalAlign=bottom;endArrow=block;edgeStyle=elbowEdgeStyle;elbow=vertical;curved=0;rounded=0;" parent="1" source="aM9ryv3xv72pqoxQDRHE-2" target="aM9ryv3xv72pqoxQDRHE-6" edge="1">
          <mxGeometry relative="1" as="geometry">
            <mxPoint x="195" y="130" as="sourcePoint" />
            <Array as="points">
              <mxPoint x="180" y="120" />
            </Array>
            <mxPoint as="offset" />
          </mxGeometry>
        </mxCell>
        <mxCell id="aM9ryv3xv72pqoxQDRHE-9" value="Authentication Success" style="html=1;verticalAlign=bottom;endArrow=block;edgeStyle=elbowEdgeStyle;elbow=horizontal;curved=0;rounded=0;" parent="1" source="aM9ryv3xv72pqoxQDRHE-6" edge="1">
          <mxGeometry relative="1" as="geometry">
            <mxPoint x="175" y="160" as="sourcePoint" />
            <Array as="points">
              <mxPoint x="190" y="160" />
            </Array>
            <mxPoint x="100" y="160" as="targetPoint" />
          </mxGeometry>
        </mxCell>
        <mxCell id="aM9ryv3xv72pqoxQDRHE-10" value="Access User Management&lt;span style=&quot;white-space: pre;&quot;&gt;&#x9;&lt;/span&gt;" style="html=1;verticalAlign=bottom;endArrow=open;dashed=1;endSize=8;edgeStyle=elbowEdgeStyle;elbow=vertical;curved=0;rounded=0;" parent="1" target="aM9ryv3xv72pqoxQDRHE-6" edge="1">
          <mxGeometry relative="1" as="geometry">
            <mxPoint x="175" y="235" as="targetPoint" />
            <Array as="points">
              <mxPoint x="180" y="230" />
            </Array>
            <mxPoint x="100" y="230" as="sourcePoint" />
          </mxGeometry>
        </mxCell>
        <mxCell id="F1PDAzdhcRapcqYsl9dT-1" value="Database" style="shape=umlLifeline;perimeter=lifelinePerimeter;whiteSpace=wrap;html=1;container=0;dropTarget=0;collapsible=0;recursiveResize=0;outlineConnect=0;portConstraint=eastwest;newEdgeStyle={&quot;edgeStyle&quot;:&quot;elbowEdgeStyle&quot;,&quot;elbow&quot;:&quot;vertical&quot;,&quot;curved&quot;:0,&quot;rounded&quot;:0};" vertex="1" parent="1">
          <mxGeometry x="400" y="40" width="100" height="400" as="geometry" />
        </mxCell>
        <mxCell id="F1PDAzdhcRapcqYsl9dT-2" value="" style="html=1;points=[];perimeter=orthogonalPerimeter;outlineConnect=0;targetShapes=umlLifeline;portConstraint=eastwest;newEdgeStyle={&quot;edgeStyle&quot;:&quot;elbowEdgeStyle&quot;,&quot;elbow&quot;:&quot;vertical&quot;,&quot;curved&quot;:0,&quot;rounded&quot;:0};" vertex="1" parent="F1PDAzdhcRapcqYsl9dT-1">
          <mxGeometry x="45" y="80" width="10" height="170" as="geometry" />
        </mxCell>
        <mxCell id="aM9ryv3xv72pqoxQDRHE-8" value="&amp;nbsp;Select Action (e.g., Update)" style="html=1;verticalAlign=bottom;endArrow=open;dashed=1;endSize=8;edgeStyle=elbowEdgeStyle;elbow=vertical;curved=0;rounded=0;" parent="1" source="aM9ryv3xv72pqoxQDRHE-2" target="aM9ryv3xv72pqoxQDRHE-6" edge="1">
          <mxGeometry x="0.0017" relative="1" as="geometry">
            <mxPoint x="195" y="205" as="targetPoint" />
            <Array as="points">
              <mxPoint x="190" y="280" />
            </Array>
            <mxPoint as="offset" />
          </mxGeometry>
        </mxCell>
        <mxCell id="F1PDAzdhcRapcqYsl9dT-3" value=" Authenticate and Authorize" style="html=1;verticalAlign=bottom;endArrow=open;dashed=1;endSize=8;edgeStyle=elbowEdgeStyle;elbow=vertical;curved=0;rounded=0;" edge="1" parent="1">
          <mxGeometry x="-0.0303" relative="1" as="geometry">
            <mxPoint x="445" y="260" as="targetPoint" />
            <Array as="points">
              <mxPoint x="360" y="260" />
            </Array>
            <mxPoint x="280" y="260" as="sourcePoint" />
            <mxPoint as="offset" />
          </mxGeometry>
        </mxCell>
        <mxCell id="F1PDAzdhcRapcqYsl9dT-4" value="Perform Action&amp;nbsp;" style="html=1;verticalAlign=bottom;endArrow=open;dashed=1;endSize=8;edgeStyle=elbowEdgeStyle;elbow=vertical;curved=0;rounded=0;" edge="1" parent="1" target="aM9ryv3xv72pqoxQDRHE-5">
          <mxGeometry x="0.1456" relative="1" as="geometry">
            <mxPoint x="260" y="290" as="targetPoint" />
            <Array as="points">
              <mxPoint x="165" y="320" />
            </Array>
            <mxPoint x="90" y="290" as="sourcePoint" />
            <mxPoint as="offset" />
          </mxGeometry>
        </mxCell>
        <mxCell id="F1PDAzdhcRapcqYsl9dT-5" value="Update Database&amp;nbsp;" style="html=1;verticalAlign=bottom;endArrow=open;dashed=1;endSize=8;edgeStyle=elbowEdgeStyle;elbow=vertical;curved=0;rounded=0;" edge="1" parent="1">
          <mxGeometry x="0.1456" relative="1" as="geometry">
            <mxPoint x="270" y="370" as="targetPoint" />
            <Array as="points">
              <mxPoint x="165" y="370" />
            </Array>
            <mxPoint x="90" y="340" as="sourcePoint" />
            <mxPoint as="offset" />
          </mxGeometry>
        </mxCell>
        <mxCell id="F1PDAzdhcRapcqYsl9dT-8" value="Confirmation&amp;nbsp; &amp;nbsp; &amp;nbsp;" style="html=1;verticalAlign=bottom;endArrow=block;edgeStyle=elbowEdgeStyle;elbow=vertical;curved=0;rounded=0;" edge="1" parent="1">
          <mxGeometry x="0.5" relative="1" as="geometry">
            <mxPoint x="90" y="420" as="sourcePoint" />
            <Array as="points">
              <mxPoint x="270" y="420" />
            </Array>
            <mxPoint x="90" y="420" as="targetPoint" />
            <mxPoint as="offset" />
          </mxGeometry>
        </mxCell>
      </root>
    </mxGraphModel>
  </diagram>
</mxfile>
